<svg xmlns="http://www.w3.org/2000/svg" width="64" height="64" viewBox="0 0 64 64">
    <path fill="#6C63FF" fill-rule="evenodd" d="M46.138 43.308l2.828 2.828c.78.782.78 2.048 0 2.828a1.998 1.998 0 0 1-2.828 0l-2.829-2.828a2 2 0 1 1 2.829-2.828zm-14.141 4.687a2 2 0 0 1 2 1.999v4a2 2 0 0 1-4 0v-4a2 2 0 0 1 2-1.999zm-14.141-4.687a2.001 2.001 0 0 1 2.828 0 1.998 1.998 0 0 1 0 2.828l-2.828 2.828a2 2 0 1 1-2.828-2.828l2.828-2.828zm-1.857-11.311a2 2 0 0 1-2 1.999h-4a1.999 1.999 0 0 1 0-3.999h4a2 2 0 0 1 2 2zm1.857-11.313l-2.828-2.828a2 2 0 1 1 2.828-2.828l2.828 2.828a2 2 0 1 1-2.828 2.828zm14.141-4.685a2 2 0 0 1-2-2V10a2 2 0 0 1 4 0v3.999a2 2 0 0 1-2 2zm0 7.999a8 8 0 1 0-.001 15.999 8 8 0 0 0 .001-15.999zm0 19.997c-6.627 0-11.999-5.372-11.999-11.998 0-6.627 5.372-11.999 11.999-11.999 6.627 0 11.998 5.372 11.998 11.999 0 6.626-5.371 11.998-11.998 11.998zm14.141-23.311a2 2 0 0 1-2.829-2.828l2.829-2.828a2 2 0 1 1 2.828 2.828l-2.828 2.828zm7.856 13.312h-3.999a2 2 0 1 1 0-3.999h3.999a1.999 1.999 0 1 1 0 3.999z"/>
</svg>
