<svg xmlns="http://www.w3.org/2000/svg" width="64" height="64" viewBox="0 0 64 64">
    <path fill="#6C63FF" fill-rule="evenodd" d="M46.995 49.993a2 2 0 0 1 2-1.999h2.999a2 2 0 0 0 0-3.999 2 2 0 1 1 .403-3.959c3.122.211 5.597 2.783 5.597 5.958a5.999 5.999 0 0 1-5.25 5.948v.051h-3.749a2 2 0 0 1-2-2zM19.856 12.684l-2.828-2.828a2 2 0 1 1 2.828-2.828l2.828 2.828a2 2 0 1 1-2.828 2.828zm14.141-4.685a2 2 0 0 1-2-2V2a2 2 0 1 1 4 0v3.999a2 2 0 0 1-2 2zm0 7.999a7.975 7.975 0 0 0-5.664 2.35 16.076 16.076 0 0 1 5.63 5.854c.663-.115 1.336-.205 2.034-.205 2.125 0 4.118.558 5.849 1.527.096-.494.15-1.005.15-1.527a8 8 0 0 0-7.999-7.999zm11.192 12.294a11.983 11.983 0 0 1 2.114 3.704h-.01a11.8 11.8 0 0 1 .5 1.863 9.93 9.93 0 0 0-4.847-1.816c-.01-.016-.023-.031-.032-.047h.002a7.985 7.985 0 0 0-6.919-3.999c-1.601 0-3.084.48-4.334 1.29-1.232-5.317-5.974-9.29-11.665-9.29-6.626 0-11.999 5.372-11.999 11.999 0 6.626 5.373 11.999 11.999 11.999H41.996a2 2 0 0 0 0-4 2 2 0 1 1 .402-3.959c3.122.211 5.597 2.783 5.597 5.959a5.997 5.997 0 0 1-5.249 5.947v.052H19.998a1.999 1.999 0 0 0 0 3.999h22.748v.052a5.997 5.997 0 0 1 5.249 5.948c0 3.175-2.475 5.747-5.597 5.958a2 2 0 1 1-.402-3.958 2 2 0 0 0 0-4H19.249v-.052a5.998 5.998 0 0 1-5.25-5.948 5.89 5.89 0 0 1 .773-2.89C8.506 44.935 4 38.999 4 31.996c0-8.835 7.163-15.998 15.998-15.998 1.573 0 3.089.232 4.524.655 2.195-2.828 5.617-4.654 9.475-4.654 6.626 0 11.998 5.371 11.998 11.998 0 1.515-.293 2.959-.806 4.295zm2.948-15.608a2 2 0 1 1-2.828-2.828l2.828-2.828a1.998 1.998 0 1 1 2.827 2.828l-2.827 2.828zm7.857 13.313h-4a2 2 0 0 1 0-4h4a2 2 0 0 1 0 4z"/>
</svg>
