<svg xmlns="http://www.w3.org/2000/svg" width="64" height="64" viewBox="0 0 64 64">
    <path fill="#6C63FF" fill-rule="evenodd" d="M33.997 46.205l2.121 2.121a2.998 2.998 0 1 1-4.242 4.242 3 3 0 0 1 0-4.242l2.121-2.121zm-6.999 7.998l2.121 2.121a3 3 0 1 1-4.243 0l2.122-2.121zm-6.999-7.998l2.121 2.121a2.998 2.998 0 0 1 0 4.242 3.001 3.001 0 0 1-4.243 0 3.002 3.002 0 0 1 0-4.242l2.122-2.121zm.858-30.521l-2.828-2.828a2 2 0 1 1 2.828-2.828l2.828 2.828a2 2 0 1 1-2.828 2.828zm14.14-4.686a1.998 1.998 0 0 1-1.999-1.999V5a1.999 1.999 0 1 1 3.999 0v3.999a2 2 0 0 1-2 1.999zm0 8a7.979 7.979 0 0 0-5.663 2.35 16.086 16.086 0 0 1 5.629 5.853c.664-.113 1.337-.205 2.034-.205 2.126 0 4.118.559 5.849 1.527.096-.494.15-1.004.15-1.527a7.998 7.998 0 0 0-7.999-7.998zM46.19 31.291a11.946 11.946 0 0 1 2.806 7.704c0 5.228-3.349 9.661-8.014 11.306a6.957 6.957 0 0 0-1.222-3.807c3.054-1.127 5.236-4.055 5.236-7.499a7.999 7.999 0 0 0-7.999-7.999 7.936 7.936 0 0 0-4.333 1.291c-1.233-5.316-5.974-9.29-11.665-9.29C14.373 22.997 9 28.369 9 34.996c0 1.404.254 2.746.698 3.999h.014a12.032 12.032 0 0 0 5.395 6.446l-.058.057a6.954 6.954 0 0 0-1.872 3.445 16.015 16.015 0 0 1-7.652-9.948A15.983 15.983 0 0 1 5 34.996c0-8.836 7.164-15.998 15.999-15.998a16 16 0 0 1 4.523.654c2.195-2.827 5.618-4.654 9.475-4.654 6.627 0 11.999 5.372 11.999 11.998 0 1.516-.293 2.96-.806 4.295zm2.947-15.607a2 2 0 1 1-2.828-2.828l2.828-2.828a2 2 0 1 1 2.828 2.828l-2.828 2.828zm7.858 13.312h-4a1.999 1.999 0 1 1 0-3.999h4a2 2 0 0 1 0 3.999z"/>
</svg>
