<svg xmlns="http://www.w3.org/2000/svg" width="64" height="64" viewBox="0 0 64 64">
    <path fill="#6C63FF" fill-rule="evenodd" d="M20.856 20.684l-2.827-2.828a2 2 0 0 1 2.827-2.828l2.828 2.828a2 2 0 1 1-2.828 2.828zm14.141-4.686a1.998 1.998 0 0 1-1.999-1.999V10a2 2 0 1 1 3.999 0v3.999a1.999 1.999 0 0 1-2 1.999zm0 8a7.977 7.977 0 0 0-5.663 2.35 16.094 16.094 0 0 1 5.629 5.853c.664-.113 1.337-.205 2.034-.205 2.125 0 4.119.559 5.849 1.527a7.995 7.995 0 0 0 .151-1.527 8 8 0 0 0-8-7.998zM9 39.996c0 6.626 5.372 11.998 11.999 11.998h15.998a8 8 0 0 0 0-15.998c-1.6 0-3.083.481-4.333 1.291-1.232-5.316-5.974-9.29-11.665-9.29C14.372 27.997 9 33.369 9 39.996zm37.19-3.705a11.946 11.946 0 0 1 2.806 7.704c0 6.626-5.372 11.999-11.999 11.999H20.999C12.164 55.994 5 48.831 5 39.996c0-8.836 7.164-15.998 15.999-15.998 1.572 0 3.089.232 4.523.654 2.195-2.827 5.618-4.654 9.475-4.654 6.627 0 11.999 5.372 11.999 11.998 0 1.516-.293 2.96-.806 4.295zm2.947-15.607a2 2 0 1 1-2.828-2.828l2.828-2.828a2 2 0 1 1 2.828 2.828l-2.828 2.828zm7.858 13.312h-4a1.999 1.999 0 1 1 0-3.999h4a2 2 0 0 1 0 3.999z"/>
</svg>
