<svg xmlns="http://www.w3.org/2000/svg" width="64" height="64" viewBox="0 0 64 64">
    <path fill="#6C63FF" fill-rule="evenodd" d="M34.997 37.995a2 2 0 0 1 2 1.999v15.998a2 2 0 1 1-3.999 0V39.994c0-1.104.895-1.999 1.999-1.999zm-7.999 3.999a2 2 0 0 1 2 2v15.998a2 2 0 0 1-4 0V43.994a2 2 0 0 1 2-2zm-8-3.999c1.106 0 2 .895 2 1.999v15.998a1.999 1.999 0 1 1-3.999 0V39.994a2 2 0 0 1 1.999-1.999zm1.859-23.312l-2.828-2.828a2 2 0 1 1 2.828-2.828l2.828 2.828a2 2 0 1 1-2.828 2.828zm14.14-4.686a1.999 1.999 0 0 1-1.999-2V3.999a1.999 1.999 0 1 1 3.999 0v3.998c0 1.106-.895 2-2 2zm0 8a7.977 7.977 0 0 0-5.662 2.35 16.079 16.079 0 0 1 5.628 5.854c.664-.114 1.338-.205 2.034-.205 2.126 0 4.119.558 5.849 1.527a7.995 7.995 0 0 0 .151-1.527 8 8 0 0 0-8-7.999zM46.19 30.29a11.941 11.941 0 0 1 2.806 7.705c0 5.221-3.343 9.651-7.999 11.3v-4.38a7.991 7.991 0 0 0 4-6.92 8 8 0 0 0-8-7.999c-1.6 0-3.083.48-4.333 1.291-1.232-5.318-5.974-9.29-11.666-9.29C14.373 21.997 9 27.369 9 33.995c0 3.549 1.551 6.728 4 8.924v4.916c-4.777-2.767-8-7.921-8-13.84 0-8.835 7.164-15.998 15.998-15.998 1.573 0 3.09.232 4.525.655 2.194-2.827 5.617-4.655 9.474-4.655 6.627 0 11.999 5.372 11.999 11.999 0 1.515-.292 2.96-.806 4.294zm2.947-15.607a2 2 0 1 1-2.828-2.828l2.828-2.828a2.001 2.001 0 0 1 2.828 0 1.998 1.998 0 0 1 0 2.828l-2.828 2.828zm7.858 13.313h-4a2 2 0 0 1 0-4h4a2 2 0 0 1 0 4z"/>
</svg>
