<svg xmlns="http://www.w3.org/2000/svg" width="64" height="64" viewBox="0 0 64 64">
    <path fill="#6C63FF" fill-rule="evenodd" d="M34.997 49.994a2 2 0 0 1 2 1.999v3.999a2 2 0 1 1-4 0v-3.999a2 2 0 0 1 2-1.999zm0-11.999a2 2 0 0 1 2 2v3.999a2 2 0 0 1-4 0v-3.999a2 2 0 0 1 2-2zm-7.999 15.998a2 2 0 0 1 2 1.999v4a2 2 0 0 1-4 0v-4a2 2 0 0 1 2-1.999zm0-11.999a2 2 0 0 1 2 2v4a2 2 0 0 1-4 0v-4a2 2 0 0 1 2-2zm-7.999 8a2 2 0 0 1 2 1.999v3.999a2 2 0 1 1-4 0v-3.999a2 2 0 0 1 2-1.999zm0-11.999a2 2 0 0 1 2 2v3.999a2 2 0 0 1-4 0v-3.999a2 2 0 0 1 2-2zm1.857-23.311l-2.828-2.828a2 2 0 1 1 2.828-2.828l2.828 2.828a2 2 0 1 1-2.828 2.828zm14.141-4.686c-1.105 0-2-.894-2-1.999V4a2 2 0 1 1 4 0v3.999a2 2 0 0 1-2 1.999zm0 8a7.98 7.98 0 0 0-5.664 2.35 16.089 16.089 0 0 1 5.63 5.853c.664-.113 1.336-.205 2.034-.205 2.125 0 4.118.559 5.849 1.527.096-.494.15-1.004.15-1.527a7.998 7.998 0 0 0-7.999-7.998zM46.19 30.291a11.945 11.945 0 0 1 2.805 7.704c0 5.222-3.342 9.652-7.999 11.302v-4.382a7.991 7.991 0 0 0 4-6.92 8 8 0 0 0-7.999-7.999 7.94 7.94 0 0 0-4.334 1.291c-1.232-5.316-5.973-9.29-11.664-9.29C14.372 21.997 9 27.369 9 33.996c0 3.549 1.55 6.729 4 8.925v4.915c-4.778-2.768-8-7.922-8-13.84 0-8.836 7.163-15.998 15.999-15.998a16 16 0 0 1 4.523.654c2.195-2.827 5.617-4.654 9.475-4.654 6.627 0 11.998 5.372 11.998 11.998 0 1.516-.292 2.96-.805 4.295zm2.947-15.607a2 2 0 1 1-2.828-2.828l2.828-2.828a2 2 0 1 1 2.828 2.828l-2.828 2.828zm7.857 13.312h-3.999a1.999 1.999 0 1 1 0-3.999h3.999a2 2 0 0 1 0 3.999z"/>
</svg>
