<svg xmlns="http://www.w3.org/2000/svg" width="64" height="64" viewBox="0 0 64 64">
    <path fill="#6C63FF" fill-rule="evenodd" d="M26.998 52.994a1.999 1.999 0 1 0 0-3.998 1.999 1.999 0 0 0 0 3.998zm-6.928-5.999a1.999 1.999 0 0 1 2.731-.732l2.197 1.267v-2.535a2 2 0 0 1 3.999 0v2.535l2.196-1.267a2 2 0 1 1 2 3.464l-2.196 1.268 2.196 1.268a2 2 0 1 1-2 3.463l-2.196-1.268v2.535a1.999 1.999 0 1 1-3.999 0v-2.535l-2.197 1.268a2 2 0 0 1-1.999-3.463l2.196-1.268-2.196-1.268a2 2 0 0 1-.732-2.732zm.786-29.31l-2.828-2.829a2 2 0 1 1 2.828-2.828l2.828 2.828a2 2 0 0 1-2.828 2.829zm14.141-4.686c-1.105 0-2-.894-2-2V7a2 2 0 0 1 4 0v3.999a2 2 0 0 1-2 2zm0 7.999a7.976 7.976 0 0 0-5.664 2.351 16.081 16.081 0 0 1 5.63 5.853c.663-.113 1.336-.205 2.034-.205 2.125 0 4.118.559 5.849 1.527.096-.494.15-1.003.15-1.527a8 8 0 0 0-7.999-7.999zm11.192 12.294a11.943 11.943 0 0 1 2.806 7.703c0 5.944-4.327 10.865-9.999 11.819v-4.082c3.448-.889 5.999-4.01 5.999-7.737a7.998 7.998 0 0 0-7.998-7.998 7.94 7.94 0 0 0-4.334 1.291c-1.232-5.317-5.974-9.291-11.665-9.291C14.372 24.997 9 30.37 9 36.996c0 4.439 2.416 8.305 5.999 10.38v4.444C9.138 49.446 5 43.708 5 36.996c0-8.835 7.163-15.998 15.998-15.998 1.573 0 3.089.232 4.524.655 2.195-2.828 5.617-4.654 9.475-4.654 6.626 0 11.998 5.371 11.998 11.998 0 1.516-.293 2.959-.806 4.295zm2.948-15.607a2 2 0 1 1-2.828-2.829l2.828-2.828a1.998 1.998 0 0 1 2.827 0 1.998 1.998 0 0 1 0 2.828l-2.827 2.829zm7.857 13.312h-4a2 2 0 1 1 0-4h4a2 2 0 0 1 0 4z"/>
</svg>
