<svg xmlns="http://www.w3.org/2000/svg" width="64" height="64" viewBox="0 0 64 64">
    <path fill="#6C63FF" fill-rule="evenodd" d="M7 55.993h39.996a2.001 2.001 0 0 1 0 4H7a2 2 0 0 1 0-4zm0-7.998h39.996a2 2 0 0 1 0 3.999H7a2 2 0 1 1 0-3.999zm0-8h39.996a2.001 2.001 0 0 1 0 4H7a2 2 0 0 1 0-4zm13.856-23.31l-2.827-2.829a2 2 0 0 1 2.827-2.828l2.828 2.828a2 2 0 0 1-2.828 2.829zm14.141-4.686c-1.105 0-2-.894-2-2V6a2 2 0 0 1 4 0v3.999a2 2 0 0 1-2 2zm0 7.999a7.974 7.974 0 0 0-5.663 2.351 16.087 16.087 0 0 1 5.629 5.853c.664-.113 1.337-.205 2.034-.205 2.125 0 4.118.559 5.849 1.527.096-.494.15-1.003.15-1.527a7.999 7.999 0 0 0-7.999-7.999zM46.19 32.292a11.983 11.983 0 0 1 2.113 3.704h-4.386a7.988 7.988 0 0 0-6.92-3.999 7.942 7.942 0 0 0-4.334 1.291c-1.232-5.317-5.973-9.291-11.664-9.291C14.372 23.997 9 29.37 9 35.996H5c0-8.835 7.163-15.998 15.999-15.998 1.572 0 3.088.232 4.523.655 2.195-2.828 5.618-4.654 9.475-4.654 6.627 0 11.999 5.371 11.999 11.998 0 1.516-.293 2.959-.806 4.295zm2.947-15.607a2 2 0 1 1-2.828-2.829l2.828-2.828a2 2 0 1 1 2.828 2.828l-2.828 2.829zm7.857 13.312h-3.999a2 2 0 1 1 0-4h3.999a2 2 0 0 1 0 4z"/>
</svg>
