<svg xmlns="http://www.w3.org/2000/svg" width="64" height="64" viewBox="0 0 64 64">
    <path fill="#6C63FF" fill-rule="evenodd" d="M34.997 51.994a2 2 0 1 1-.001 4.001 2 2 0 0 1 .001-4.001zm0-7.999a2 2 0 1 1-.001 4.001 2 2 0 0 1 .001-4.001zm-7.998 11.998a2.001 2.001 0 0 1 0 4 1.999 1.999 0 1 1 0-4zm0-7.998a2 2 0 1 1-.002 4 2 2 0 0 1 .002-4zm-8 3.999a2 2 0 1 1-.001 4.001 2 2 0 0 1 .001-4.001zm0-7.999a2 2 0 1 1-.001 4.001 2 2 0 0 1 .001-4.001zm1.857-27.31l-2.828-2.829a2 2 0 1 1 2.828-2.828l2.828 2.828a2 2 0 0 1-2.828 2.829zm14.141-4.686a2 2 0 0 1-2-2V6a2 2 0 0 1 4 0v3.999a2 2 0 0 1-2 2zm0 7.999a7.974 7.974 0 0 0-5.663 2.351 16.087 16.087 0 0 1 5.629 5.853c.664-.113 1.337-.205 2.034-.205 2.125 0 4.118.559 5.849 1.527a7.987 7.987 0 0 0 .151-1.527 8 8 0 0 0-8-7.999zM46.19 32.292a11.942 11.942 0 0 1 2.805 7.703c0 5.223-3.342 9.652-7.998 11.302v-4.381a7.992 7.992 0 0 0 3.999-6.921 7.998 7.998 0 0 0-7.999-7.998c-1.6 0-3.083.481-4.334 1.291-1.232-5.317-5.973-9.291-11.664-9.291C14.372 23.997 9 29.37 9 35.996c0 3.55 1.55 6.729 4 8.925v4.916c-4.777-2.768-8-7.923-8-13.841 0-8.835 7.163-15.998 15.999-15.998 1.572 0 3.089.232 4.523.655 2.195-2.828 5.618-4.654 9.475-4.654 6.627 0 11.999 5.371 11.999 11.998 0 1.516-.293 2.959-.806 4.295zm2.947-15.607a2 2 0 1 1-2.828-2.829l2.828-2.828a2 2 0 1 1 2.828 2.828l-2.828 2.829zm7.858 13.312h-4a2 2 0 1 1 0-4h4a2 2 0 0 1 0 4z"/>
</svg>
