<svg xmlns="http://www.w3.org/2000/svg" width="64" height="64" viewBox="0 0 64 64">
    <g fill="none" fill-rule="evenodd">
        <path d="M0 0h64v64H0z"/>
        <path fill="#6C63FF" d="M40.997 43.996a8 8 0 0 0 0-15.998c-1.6 0-3.082.481-4.333 1.291-1.232-5.316-5.974-9.29-11.666-9.29C18.373 19.999 13 25.371 13 31.998c0 6.626 5.373 11.998 11.998 11.998h15.999zm-15.999 4C16.164 47.996 9 40.833 9 31.998 9 23.162 16.164 16 24.998 16c6.004 0 11.229 3.312 13.965 8.203.664-.113 1.338-.205 2.034-.205 6.627 0 11.999 5.373 11.999 11.999s-5.372 11.999-11.999 11.999H24.998z"/>
    </g>
</svg>
