<svg xmlns="http://www.w3.org/2000/svg" width="64" height="64" viewBox="0 0 64 64">
    <path fill="#6C63FF" fill-rule="evenodd" d="M24.998 35.995h9.999l-5.999 10h6.999L22.999 61.993l3.599-11.999h-6.599l4.999-13.999zm-4.142-21.31l-2.827-2.829a2 2 0 0 1 2.827-2.828l2.828 2.828a2 2 0 0 1-2.828 2.829zm14.141-4.686a2 2 0 0 1-2-2V4a2 2 0 0 1 4 0v3.999a2 2 0 0 1-2 2zm0 7.999a7.974 7.974 0 0 0-5.663 2.351 16.079 16.079 0 0 1 5.629 5.853c.664-.114 1.337-.205 2.034-.205 2.125 0 4.118.559 5.849 1.527.096-.494.15-1.004.15-1.527a7.999 7.999 0 0 0-7.999-7.999zM46.19 30.292a11.967 11.967 0 0 1 2.633 5.703h-.008c.109.652.18 1.318.18 2 0 6.627-5.372 11.999-11.998 11.999h-1.063l3.584-4.411c3.181-1.058 5.478-4.053 5.478-7.588 0-.691-.098-1.359-.263-2-.889-3.447-4.011-5.998-7.736-5.998a7.95 7.95 0 0 0-4.334 1.29c-1.232-5.316-5.973-9.29-11.664-9.29C14.372 21.997 9 27.369 9 33.996c0 .683.07 1.348.18 1.999h-.013c.763 4.548 4.087 8.223 8.437 9.505l-1.35 3.778A16.003 16.003 0 0 1 5.138 35.995 16.064 16.064 0 0 1 5 33.996c0-8.835 7.163-15.998 15.999-15.998 1.572 0 3.088.232 4.523.655 2.195-2.828 5.618-4.654 9.475-4.654 6.627 0 11.999 5.371 11.999 11.998 0 1.516-.293 2.959-.806 4.295zm2.947-15.607a2 2 0 1 1-2.828-2.829l2.828-2.828a2 2 0 1 1 2.828 2.828l-2.828 2.829zm7.857 13.312h-3.999a2 2 0 1 1 0-4h3.999a2 2 0 0 1 0 4z"/>
</svg>
