<svg xmlns="http://www.w3.org/2000/svg" width="64" height="64" viewBox="0 0 64 64">
    <path fill="#6C63FF" fill-rule="evenodd" d="M29.999 27.997h9.998l-5.999 10h6.999L27.999 53.995l3.599-11.999h-6.599l5-13.999zm11.998 13.999h-1.063l3.585-4.411c3.181-1.058 5.477-4.053 5.477-7.588a7.998 7.998 0 0 0-7.999-7.998 7.944 7.944 0 0 0-4.333 1.29c-1.233-5.316-5.974-9.29-11.665-9.29C19.373 13.999 14 19.371 14 25.998c0 5.446 3.632 10.038 8.604 11.504l-1.349 3.778C14.736 39.259 10 33.182 10 25.998 10 17.163 17.164 10 25.999 10c6.003 0 11.228 3.312 13.964 8.204.664-.114 1.337-.205 2.034-.205 6.627 0 11.999 5.371 11.999 11.998 0 6.627-5.372 11.999-11.999 11.999z"/>
</svg>
