<svg xmlns="http://www.w3.org/2000/svg" width="64" height="64" viewBox="0 0 64 64">
    <g fill="none" fill-rule="evenodd">
        <path d="M0 0h64v64H0z"/>
        <path fill="#6C63FF" d="M31.999 46.205l-2.122 2.121a3 3 0 1 0 4.242 0l-2.12-2.121zm6.999-7.998l-2.122 2.121a3 3 0 1 0 4.243 0l-2.121-2.121zm-13.999 0l-2.122 2.121a3.002 3.002 0 0 0 0 4.242 3.001 3.001 0 0 0 4.243 0 2.998 2.998 0 0 0 0-4.242l-2.121-2.121zm16.998-19.209c-.697 0-1.37.092-2.034.205C37.227 14.312 32.002 11 25.999 11 17.164 11 10 18.162 10 26.998c0 5.992 3.3 11.207 8.177 13.947A6.948 6.948 0 0 1 20.05 37.5l.057-.057C16.463 35.383 14 31.481 14 26.998c0-6.627 5.373-11.999 11.999-11.999 5.691 0 10.432 3.974 11.665 9.29a7.939 7.939 0 0 1 4.333-1.291 7.999 7.999 0 0 1 7.999 7.999c0 3.444-2.182 6.372-5.236 7.499a6.957 6.957 0 0 1 1.222 3.807c4.665-1.645 8.014-6.078 8.014-11.306 0-6.626-5.372-11.999-11.999-11.999z"/>
    </g>
</svg>
