<svg xmlns="http://www.w3.org/2000/svg" width="64" height="64" viewBox="0 0 64 64">
    <path fill="#6C63FF" fill-rule="evenodd" d="M31.998 44.996a2 2 0 1 0 0-4 2 2 0 0 0 0 4zm-6.928-5.999a2 2 0 0 1 2.732-.732l2.196 1.267v-2.535a2 2 0 0 1 4 0v2.535l2.195-1.267a2 2 0 1 1 2 3.464l-2.196 1.268 2.196 1.268a2 2 0 1 1-2 3.463l-2.195-1.268v2.535a2 2 0 1 1-4 0V46.46l-2.196 1.268a2 2 0 0 1-2-3.463l2.196-1.268-2.196-1.268a2 2 0 0 1-.732-2.732zm18.926 5.819v-4.082c3.448-.889 6-4.01 6-7.737a8 8 0 0 0-7.999-7.998 7.94 7.94 0 0 0-4.334 1.291c-1.232-5.317-5.973-9.291-11.664-9.291C19.372 16.999 14 22.372 14 28.998c0 4.439 2.417 8.305 5.999 10.38v4.444C14.138 41.448 10 35.71 10 28.998 10 20.163 17.163 13 25.999 13c6.003 0 11.228 3.312 13.964 8.204.664-.113 1.336-.205 2.034-.205 6.626 0 11.998 5.372 11.998 11.998 0 5.944-4.327 10.865-9.999 11.819z"/>
</svg>
