<svg xmlns="http://www.w3.org/2000/svg" width="64" height="64" viewBox="0 0 64 64">
    <path fill="#6C63FF" fill-rule="evenodd" d="M42.996 31.997a2 2 0 1 1 .403-3.959c3.121.211 5.596 2.783 5.596 5.959a5.997 5.997 0 0 1-5.249 5.947v.052H20.999a2 2 0 1 0 0 3.999h22.747v.052a5.997 5.997 0 0 1 5.249 5.948c0 3.175-2.475 5.747-5.596 5.958a2.001 2.001 0 0 0 1.597-5.958 2 2 0 0 0-2-2H20.249v-.052a5.998 5.998 0 0 1-5.25-5.948 5.89 5.89 0 0 1 .773-2.89C9.507 36.937 5 31.001 5 23.998 5 15.163 12.163 8 20.999 8c6.003 0 11.228 3.311 13.964 8.204.664-.115 1.336-.205 2.034-.205 5.895 0 10.788 4.255 11.797 9.862a9.937 9.937 0 0 0-4.848-1.816 7.99 7.99 0 0 0-6.949-4.046c-1.601 0-3.084.48-4.334 1.29-1.232-5.317-5.973-9.29-11.664-9.29C14.372 11.999 9 17.371 9 23.998c0 6.626 5.372 11.999 11.999 11.999h21.997a2 2 0 1 0 0-4zm10.748 11.947v.051h-3.749a2 2 0 1 1 0-3.999h3a2 2 0 0 0 0-3.999 2 2 0 1 1 .402-3.959c3.122.211 5.597 2.783 5.597 5.958a5.999 5.999 0 0 1-5.25 5.948z"/>
</svg>
