<svg xmlns="http://www.w3.org/2000/svg" width="64" height="64" viewBox="0 0 64 64">
    <path fill="#6C63FF" fill-rule="evenodd" d="M39.997 43.996a2 2 0 1 1 0 4 2 2 0 0 1 0-4zm0-7.999a2 2 0 1 1 0 4 2 2 0 0 1 0-4zm-7.998 11.998a2 2 0 1 1-.001 3.999 2 2 0 0 1 .001-3.999zm0-7.998a2 2 0 1 1-.001 4.001 2 2 0 0 1 .001-4.001zm-8 3.999a2 2 0 1 1 0 4 2 2 0 0 1 0-4zm0-7.999a2 2 0 1 1 0 4 2 2 0 0 1 0-4zm21.998 7.302v-4.381a7.992 7.992 0 0 0 3.999-6.921 7.998 7.998 0 0 0-7.999-7.998c-1.6 0-3.083.481-4.333 1.291-1.232-5.317-5.974-9.291-11.665-9.291C19.372 15.999 14 21.372 14 27.998c0 3.55 1.55 6.729 4 8.925v4.916c-4.777-2.768-8-7.923-8-13.841C10 19.163 17.164 12 25.999 12c6.003 0 11.228 3.312 13.964 8.204.664-.113 1.337-.205 2.034-.205 6.627 0 11.999 5.372 11.999 11.998 0 5.223-3.343 9.652-7.999 11.302z"/>
</svg>
