<svg xmlns="http://www.w3.org/2000/svg" width="64" height="64" viewBox="0 0 64 64">
    <path fill="#6C63FF" fill-rule="evenodd" d="M39.998 29.998c1.104 0 1.999.895 1.999 1.999v15.998a2 2 0 1 1-3.999 0V31.997a2 2 0 0 1 2-1.999zm-8 3.999a2 2 0 0 1 2.001 2v15.998a2 2 0 0 1-4 0V35.997a2 2 0 0 1 1.999-2zM24 29.998c1.104 0 1.998.895 1.998 1.999v15.998a1.998 1.998 0 1 1-3.999 0V31.997A2 2 0 0 1 24 29.998zm21.997 11.3v-4.38a7.991 7.991 0 0 0 4-6.92 8 8 0 0 0-8-7.999c-1.6 0-3.082.48-4.333 1.291C36.432 17.972 31.69 14 25.998 14 19.373 14 14 19.372 14 25.998c0 3.549 1.551 6.728 4 8.924v4.916c-4.777-2.767-8-7.921-8-13.84C10 17.163 17.164 10 25.998 10c6.004 0 11.229 3.311 13.965 8.204.664-.114 1.338-.205 2.034-.205 6.627 0 11.999 5.372 11.999 11.999 0 5.221-3.342 9.651-7.999 11.3z"/>
</svg>
