<svg xmlns="http://www.w3.org/2000/svg" width="64" height="64" viewBox="0 0 64 64">
    <path fill="#6C63FF" fill-rule="evenodd" d="M12 47.995h39.996a2 2 0 0 1 0 4H12a2 2 0 0 1 0-4zm29.997-23.996a7.936 7.936 0 0 0-4.333 1.291c-1.233-5.317-5.974-9.291-11.665-9.291C19.373 15.999 14 21.372 14 27.998h-4C10 19.163 17.164 12 25.999 12c6.003 0 11.228 3.312 13.964 8.204.664-.113 1.337-.205 2.034-.205 5.221 0 9.652 3.342 11.3 7.999h-4.38a7.988 7.988 0 0 0-6.92-3.999zm9.999 11.998H12a2 2 0 0 1 0-4h39.996a2 2 0 0 1 0 4zm0 7.999H12a2 2 0 1 1 0-3.999h39.996a2 2 0 0 1 0 3.999z"/>
</svg>
