<svg xmlns="http://www.w3.org/2000/svg" width="64" height="64" viewBox="0 0 64 64">
    <path fill="#6C63FF" fill-rule="evenodd" d="M39.997 41.996a2 2 0 0 1 2 1.999v3.999a2 2 0 1 1-4 0v-3.999a2 2 0 0 1 2-1.999zm0-11.999a2 2 0 0 1 2 2v3.999a2 2 0 0 1-4 0v-3.999a2 2 0 0 1 2-2zm-7.999 15.998a2 2 0 0 1 2 1.999v4a2 2 0 0 1-3.999 0v-4c0-1.103.894-1.999 1.999-1.999zm0-11.999a2 2 0 0 1 2 2v4a2 2 0 0 1-3.999 0v-4a2 2 0 0 1 1.999-2zm-7.999 8a2 2 0 0 1 2 1.999v3.999a2 2 0 1 1-4 0v-3.999a2 2 0 0 1 2-1.999zm0-11.999a2 2 0 0 1 2 2v3.999a2 2 0 0 1-4 0v-3.999a2 2 0 0 1 2-2zm21.998 11.302v-4.382a7.992 7.992 0 0 0 3.999-6.92 7.999 7.999 0 0 0-7.999-7.999 7.94 7.94 0 0 0-4.334 1.291c-1.232-5.316-5.973-9.29-11.664-9.29C19.372 13.999 14 19.371 14 25.998c0 3.549 1.55 6.729 4 8.925v4.915c-4.778-2.768-8-7.922-8-13.84C10 17.162 17.163 10 25.999 10c6.003 0 11.228 3.312 13.964 8.203.664-.113 1.336-.205 2.034-.205 6.627 0 11.998 5.373 11.998 11.999 0 5.222-3.342 9.652-7.998 11.302z"/>
</svg>
