<svg xmlns="http://www.w3.org/2000/svg" width="64" height="64" viewBox="0 0 64 64">
    <g fill="none" fill-rule="evenodd">
        <path d="M0 0h64v64H0z"/>
        <path fill="#6C63FF" d="M28.999 31.996h9.999l-5.999 9.999h6.999L26.999 57.993l3.599-11.998h-6.599l5-13.999zm11.21-20.789c-2.9.663-5.174 2.909-5.923 5.774a16.08 16.08 0 0 1 4.677 5.222c.664-.115 1.338-.205 2.034-.205 2.619 0 5.033.847 7.005 2.27a7.971 7.971 0 0 0 1.786-3.482 12 12 0 0 1-9.579-9.579zm10.608 15.906a11.974 11.974 0 0 1 2.003 4.883h-.004c.109.652.18 1.317.18 2 0 6.627-5.372 11.999-11.999 11.999h-1.062l3.584-4.412c3.181-1.057 5.478-4.051 5.478-7.587 0-.692-.098-1.36-.263-2-.89-3.448-4.011-5.999-7.737-5.999-1.6 0-3.082.481-4.333 1.291-1.232-5.317-5.974-9.29-11.666-9.29C18.373 17.998 13 23.37 13 29.997c0 .682.071 1.347.18 1.999h-.013c.763 4.548 4.087 8.222 8.438 9.505l-1.35 3.778A16.005 16.005 0 0 1 9.139 31.996 16.09 16.09 0 0 1 9 29.997c0-8.836 7.164-15.998 15.998-15.998 2.003 0 3.915.375 5.68 1.047C32.313 10.364 36.757 7 41.997 7c.755 0 1.492.078 2.208.21a7.997 7.997 0 0 0-.208 1.789 8 8 0 0 0 7.999 7.999c.616 0 1.211-.077 1.788-.207.133.715.212 1.452.212 2.207 0 3.133-1.212 5.978-3.179 8.115z"/>
    </g>
</svg>
