<svg xmlns="http://www.w3.org/2000/svg" width="64" height="64" viewBox="0 0 64 64">
    <path fill="#6C63FF" fill-rule="evenodd" d="M48.002 24.27a11.921 11.921 0 0 0-7.005-2.271c-.697 0-1.37.091-2.034.205a16.068 16.068 0 0 0-4.678-5.221c.75-2.865 3.024-5.111 5.923-5.775a12.002 12.002 0 0 0 9.58 9.58 7.998 7.998 0 0 1-1.786 3.482zm5.993-5.271c0-.754-.078-1.491-.211-2.207a8.047 8.047 0 0 1-1.788.208 8 8 0 0 1-7.999-8c0-.615.076-1.212.207-1.788A12.063 12.063 0 0 0 41.997 7c-5.241 0-9.684 3.366-11.319 8.047A15.926 15.926 0 0 0 24.999 14C16.164 14 9 21.163 9 29.998c0 5.919 3.223 11.073 8 13.84v-4.916c-2.45-2.196-4-5.375-4-8.924C13 23.372 18.372 18 24.999 18c5.691 0 10.433 3.972 11.665 9.29a7.93 7.93 0 0 1 4.333-1.291 7.999 7.999 0 0 1 7.999 7.999 7.99 7.99 0 0 1-3.999 6.92v4.38c4.656-1.649 7.999-6.079 7.999-11.3 0-2.564-.811-4.934-2.18-6.883a11.942 11.942 0 0 0 3.179-8.116zM38.997 33.998a1.999 1.999 0 0 0-1.999 1.999v15.998a2 2 0 1 0 3.999 0V35.997a2 2 0 0 0-2-1.999zm-15.998 0A1.999 1.999 0 0 0 21 35.997v15.998a2 2 0 1 0 3.999 0V35.997a2 2 0 0 0-2-1.999zm8 3.999c-1.106 0-2 .895-2 2v15.998a2 2 0 1 0 4 0V39.997a2 2 0 0 0-2-2z"/>
</svg>
