<svg xmlns="http://www.w3.org/2000/svg" width="64" height="64" viewBox="0 0 64 64">
    <path fill="#6C63FF" fill-rule="evenodd" d="M30.999 48.995a2 2 0 1 0-.001-4 2 2 0 0 0 .001 4zm-6.928-5.999a1.999 1.999 0 0 1 2.731-.732l2.197 1.267v-2.535a2 2 0 0 1 3.999 0v2.535l2.196-1.267a2 2 0 1 1 2 3.464l-2.196 1.268 2.196 1.268a2 2 0 1 1-2 3.463l-2.196-1.268v2.535a2 2 0 1 1-3.999 0v-2.535l-2.197 1.268a2 2 0 0 1-2-3.463l2.197-1.268-2.197-1.268a2 2 0 0 1-.731-2.732zm16.137-28.789c-2.9.664-5.173 2.91-5.923 5.775a16.088 16.088 0 0 1 4.678 5.221c.664-.113 1.337-.205 2.034-.205 2.618 0 5.033.848 7.004 2.272a7.972 7.972 0 0 0 1.787-3.483 11.999 11.999 0 0 1-9.58-9.58zm10.608 15.907a11.935 11.935 0 0 1 2.18 6.882c0 5.223-3.342 9.652-7.999 11.302v-4.381a7.992 7.992 0 0 0 3.999-6.921 7.998 7.998 0 0 0-7.999-7.998c-1.6 0-3.083.481-4.333 1.291-1.233-5.317-5.974-9.291-11.665-9.291C18.373 20.998 13 26.371 13 32.997c0 3.55 1.55 6.729 4 8.925v4.916c-4.777-2.768-8-7.923-8-13.841 0-8.835 7.164-15.998 15.999-15.998 2.001 0 3.914.376 5.679 1.048C32.313 13.365 36.756 10 41.997 10c.754 0 1.491.078 2.208.211A7.997 7.997 0 0 0 43.997 12a7.998 7.998 0 0 0 7.999 7.998c.615 0 1.212-.075 1.788-.207.133.717.212 1.453.212 2.207a11.94 11.94 0 0 1-3.18 8.116z"/>
</svg>
