<svg xmlns="http://www.w3.org/2000/svg" width="64" height="64" viewBox="0 0 64 64">
    <path fill="#6C63FF" fill-rule="evenodd" d="M40.208 9.207c-2.9.664-5.174 2.91-5.924 5.775a16.07 16.07 0 0 1 4.679 5.221c.664-.113 1.337-.205 2.034-.205 2.618 0 5.033.849 7.004 2.272a7.987 7.987 0 0 0 1.787-3.483 11.998 11.998 0 0 1-9.58-9.58zm-7.659 4.695h.002-.002zM13 27.998c0 6.626 5.372 11.998 11.999 11.998h15.998a8 8 0 0 0 0-15.998c-1.6 0-3.083.481-4.334 1.291-1.232-5.316-5.973-9.29-11.664-9.29C18.372 15.999 13 21.371 13 27.998zm37.816-2.884a11.945 11.945 0 0 1 2.179 6.883c0 6.626-5.371 11.999-11.998 11.999H24.999C16.163 43.996 9 36.833 9 27.998 9 19.162 16.163 12 24.999 12c2.001 0 3.914.375 5.679 1.047C32.313 8.365 36.756 5 41.997 5c.754 0 1.491.078 2.207.212A8.04 8.04 0 0 0 43.997 7a7.998 7.998 0 0 0 7.998 7.999 7.99 7.99 0 0 0 1.789-.208c.133.717.211 1.453.211 2.208 0 3.134-1.211 5.979-3.179 8.115z"/>
</svg>
