<svg xmlns="http://www.w3.org/2000/svg" width="64" height="64" viewBox="0 0 64 64">
    <g fill="none" fill-rule="evenodd">
        <path d="M0 0h64v64H0z"/>
        <path fill="#6C63FF" d="M39.997 47.995a2 2 0 1 1-.001 4.001 2 2 0 0 1 .001-4.001zm0-7.999a2 2 0 1 1-.001 4.001 2 2 0 0 1 .001-4.001zm-7.999 11.998a2 2 0 1 1 0 4 2 2 0 0 1 0-4zm0-7.998a2 2 0 1 1 0 4 2 2 0 0 1 0-4zm-7.999 3.999a2 2 0 1 1-.001 4.001 2 2 0 0 1 .001-4.001zm0-7.999a2 2 0 1 1-.001 4.001 2 2 0 0 1 .001-4.001zm17.209-26.789c-2.9.664-5.174 2.91-5.924 5.775a16.08 16.08 0 0 1 4.679 5.221c.664-.113 1.336-.205 2.034-.205 2.617 0 5.033.848 7.004 2.272a7.993 7.993 0 0 0 1.787-3.483 11.998 11.998 0 0 1-9.58-9.58zm10.607 15.907a11.935 11.935 0 0 1 2.18 6.882c0 5.223-3.342 9.652-7.998 11.302v-4.381a7.994 7.994 0 0 0-4-14.919 7.94 7.94 0 0 0-4.334 1.291c-1.232-5.317-5.973-9.291-11.664-9.291C19.372 19.998 14 25.371 14 31.997c0 3.55 1.55 6.729 4 8.925v4.916c-4.778-2.768-8-7.923-8-13.841 0-8.835 7.163-15.998 15.999-15.998 2.001 0 3.914.376 5.679 1.048C33.313 12.365 37.756 9 42.997 9c.754 0 1.49.078 2.207.211A8.056 8.056 0 0 0 44.997 11a7.997 7.997 0 0 0 7.998 7.998 7.99 7.99 0 0 0 1.789-.207c.133.717.211 1.453.211 2.207 0 3.135-1.211 5.979-3.18 8.116z"/>
    </g>
</svg>
