<svg xmlns="http://www.w3.org/2000/svg" width="64" height="64" viewBox="0 0 64 64">
    <path fill="#6C63FF" fill-rule="evenodd" d="M30.21 24.207c-3.555.813-6.21 3.989-6.21 7.792a8 8 0 0 0 7.999 7.999c3.801 0 6.977-2.656 7.791-6.211a12 12 0 0 1-9.58-9.58zm1.789 19.79C25.372 43.997 20 38.625 20 31.999 20 25.372 25.372 20 31.999 20c.754 0 1.491.078 2.207.211A7.997 7.997 0 0 0 33.998 22a8 8 0 0 0 8 7.999c.615 0 1.211-.077 1.788-.208.132.716.211 1.452.211 2.208 0 6.626-5.372 11.998-11.998 11.998z"/>
</svg>
