<svg xmlns="http://www.w3.org/2000/svg" width="64" height="64" viewBox="0 0 64 64">
    <path fill="#6C63FF" fill-rule="evenodd" d="M37.997 41.207l2.121 2.121a2.998 2.998 0 0 1 0 4.242 3.001 3.001 0 0 1-4.243 0 3.002 3.002 0 0 1 0-4.242l2.122-2.121zm-6.999 7.998l2.121 2.121a3 3 0 1 1-4.243 0l2.122-2.121zm-6.999-7.998l2.121 2.121a2.998 2.998 0 0 1 0 4.242 3.001 3.001 0 0 1-4.243 0 3.002 3.002 0 0 1 0-4.242l2.122-2.121zm16.209-30c-2.9.664-5.174 2.91-5.923 5.775a16.09 16.09 0 0 1 4.678 5.221c.664-.113 1.337-.205 2.034-.205 2.618 0 5.032.849 7.004 2.272a7.987 7.987 0 0 0 1.787-3.483 11.997 11.997 0 0 1-9.58-9.58zm10.608 15.907a11.938 11.938 0 0 1 2.179 6.883c0 5.228-3.349 9.661-8.013 11.306a6.95 6.95 0 0 0-1.223-3.807c3.055-1.127 5.237-4.055 5.237-7.499a7.999 7.999 0 0 0-7.999-7.999 7.942 7.942 0 0 0-4.334 1.291c-1.232-5.316-5.973-9.29-11.664-9.29C18.372 17.999 13 23.371 13 29.998c0 1.404.253 2.746.698 3.999h.014a12.034 12.034 0 0 0 5.394 6.446l-.057.057a6.947 6.947 0 0 0-1.872 3.445 16.015 16.015 0 0 1-7.652-9.948A15.983 15.983 0 0 1 9 29.998C9 21.162 16.163 14 24.999 14c2.001 0 3.914.375 5.678 1.047C32.313 10.365 36.756 7 41.997 7c.754 0 1.491.078 2.207.212A7.982 7.982 0 0 0 43.996 9a8 8 0 0 0 8 7.999c.615 0 1.212-.076 1.787-.208.134.717.212 1.453.212 2.208 0 3.134-1.211 5.979-3.179 8.115z"/>
</svg>
