<svg xmlns="http://www.w3.org/2000/svg" width="64" height="64" viewBox="0 0 64 64">
    <path fill="#6C63FF" fill-rule="evenodd" d="M36.208 9.207c-2.9.663-5.173 2.91-5.923 5.774a16.071 16.071 0 0 1 4.678 5.222c.664-.115 1.337-.205 2.034-.205 2.618 0 5.033.847 7.004 2.271a7.974 7.974 0 0 0 1.787-3.482 12.002 12.002 0 0 1-9.58-9.58zm12.077 18.79h.009a11.8 11.8 0 0 1 .5 1.863 9.934 9.934 0 0 0-4.848-1.816c-.009-.016-.022-.031-.031-.047h.002a7.987 7.987 0 0 0-6.92-3.999c-1.6 0-3.083.48-4.333 1.29-1.233-5.317-5.974-9.29-11.665-9.29C14.373 15.998 9 21.37 9 27.997c0 6.626 5.373 11.999 11.999 11.999h21.997a2 2 0 1 0 0-4 2 2 0 1 1 .403-3.959c3.122.211 5.597 2.783 5.597 5.959a5.997 5.997 0 0 1-5.25 5.947v.052H20.999a1.999 1.999 0 1 0 0 3.999h22.747v.052a5.997 5.997 0 0 1 5.25 5.948c0 3.175-2.475 5.747-5.597 5.958a2 2 0 1 1-.403-3.958 2 2 0 1 0 0-4H20.249v-.052A5.998 5.998 0 0 1 15 45.994a5.89 5.89 0 0 1 .773-2.89C9.507 40.936 5 35 5 27.997c0-8.835 7.164-15.998 15.999-15.998 2.001 0 3.914.376 5.679 1.047C28.313 8.364 32.756 5 37.997 5c.754 0 1.491.078 2.208.21A8 8 0 0 0 39.997 7a7.998 7.998 0 0 0 7.999 7.998c.615 0 1.212-.077 1.788-.207.133.716.212 1.452.212 2.207 0 3.134-1.212 5.978-3.18 8.115.617.88 1.101 1.854 1.469 2.884zm5.46 19.946v.051h-3.749a2 2 0 1 1 0-3.999h2.999a2 2 0 0 0 0-3.999 2 2 0 1 1 .403-3.959c3.122.211 5.596 2.783 5.596 5.958a5.998 5.998 0 0 1-5.249 5.948z"/>
</svg>
