<svg xmlns="http://www.w3.org/2000/svg" width="64" height="64" viewBox="0 0 64 64">
    <path fill="#6C63FF" fill-rule="evenodd" d="M11 51.994h39.997a2 2 0 0 1 0 4H11a2 2 0 0 1 0-4zm0-7.998h39.997a1.999 1.999 0 0 1 0 3.999H11a2 2 0 0 1 0-3.999zm0-8h39.997a2 2 0 0 1 0 4H11a2 2 0 0 1 0-4zm29.209-22.789c-2.9.663-5.174 2.91-5.923 5.774a16.08 16.08 0 0 1 4.677 5.222c.664-.115 1.338-.205 2.034-.205 2.619 0 5.033.847 7.005 2.271a7.982 7.982 0 0 0 1.786-3.482 12 12 0 0 1-9.579-9.58zm10.608 15.906c.617.88 1.101 1.854 1.469 2.884h.018-4.387a7.987 7.987 0 0 0-6.92-3.999c-1.6 0-3.082.48-4.333 1.29-1.232-5.317-5.974-9.29-11.666-9.29C18.373 19.998 13 25.37 13 31.997H9c0-8.835 7.164-15.998 15.998-15.998 2.003 0 3.915.376 5.68 1.047C32.313 12.364 36.757 9 41.997 9c.755 0 1.492.078 2.208.21a8 8 0 0 0-.208 1.79 7.998 7.998 0 0 0 7.999 7.998c.616 0 1.211-.077 1.788-.207.133.716.212 1.452.212 2.207 0 3.134-1.212 5.978-3.179 8.115z"/>
</svg>
