<svg xmlns="http://www.w3.org/2000/svg" width="64" height="64" viewBox="0 0 64 64">
    <path fill="#6C63FF" fill-rule="evenodd" d="M38.997 45.996a2 2 0 0 1 2 1.999v3.999a2 2 0 1 1-4 0v-3.999a2 2 0 0 1 2-1.999zm0-11.999a2 2 0 0 1 2 2v3.999a2 2 0 0 1-4 0v-3.999a2 2 0 0 1 2-2zm-7.999 15.998a2 2 0 0 1 1.999 1.999v4a2 2 0 1 1-3.999 0v-4a2 2 0 0 1 2-1.999zm0-11.999a2 2 0 0 1 1.999 2v4a2 2 0 1 1-3.999 0v-4a2 2 0 0 1 2-2zm-7.999 8c1.104 0 1.999.895 1.999 1.999v3.999a1.999 1.999 0 1 1-3.999 0v-3.999a2 2 0 0 1 2-1.999zm0-11.999a2 2 0 0 1 1.999 2v3.999a2 2 0 1 1-3.999 0v-3.999a2 2 0 0 1 2-2zm17.209-22.79c-2.901.664-5.174 2.91-5.924 5.775a16.093 16.093 0 0 1 4.679 5.221c.663-.113 1.336-.205 2.034-.205 2.617 0 5.032.849 7.004 2.272a7.987 7.987 0 0 0 1.787-3.483 11.997 11.997 0 0 1-9.58-9.58zm10.607 15.907a11.938 11.938 0 0 1 2.18 6.883c0 5.222-3.342 9.652-7.999 11.302v-4.382a7.99 7.99 0 0 0 3.999-6.92 7.998 7.998 0 0 0-7.998-7.999 7.94 7.94 0 0 0-4.334 1.291c-1.232-5.316-5.974-9.29-11.665-9.29C18.372 17.999 13 23.371 13 29.998c0 3.549 1.549 6.729 3.999 8.925v4.915C12.222 41.07 9 35.916 9 29.998 9 21.162 16.163 14 24.998 14c2.002 0 3.914.375 5.679 1.047C32.313 10.365 36.756 7 41.996 7c.755 0 1.491.078 2.208.212A7.982 7.982 0 0 0 43.996 9a7.999 7.999 0 0 0 7.999 7.999c.615 0 1.213-.076 1.788-.208.134.717.212 1.453.212 2.208 0 3.134-1.212 5.979-3.18 8.115z"/>
</svg>
